HIERARCHY
ROOT Hips
{
	OFFSET 14.658700 -1.743397 44.686901
	CHANNELS 6 Xposition Yposition Zposition Zrotation Xrotation Yrotation
	JOINT Chest
	{
		OFFSET -0.825500 0.895800 5.069500
		CHANNELS 6 Xposition Yposition Zposition Zrotation Xrotation Yrotation
		JOINT Chest2
		{
			OFFSET 0.000000 0.000000 4.622200
			CHANNELS 6 Xposition Yposition Zposition Zrotation Xrotation Yrotation
			JOINT Neck
			{
				OFFSET 0.000000 0.000001 10.755798
				CHANNELS 6 Xposition Yposition Zposition Zrotation Xrotation Yrotation
				JOINT Head
				{
					OFFSET 0.000000 0.000000 2.173897
					CHANNELS 6 Xposition Yposition Zposition Zrotation Xrotation Yrotation
					End Site
					{
						OFFSET 0.000000 0.000001 10.006599
					}
				}
			}
			JOINT LeftCollar
			{
				OFFSET 2.539400 -1.380899 6.761002
				CHANNELS 6 Xposition Yposition Zposition Zrotation Xrotation Yrotation
				JOINT LeftShoulder
				{
					OFFSET 5.407000 0.000000 0.000000
					CHANNELS 6 Xposition Yposition Zposition Zrotation Xrotation Yrotation
					JOINT LeftElbow
					{
						OFFSET 0.000000 -0.000001 -10.687000
						CHANNELS 6 Xposition Yposition Zposition Zrotation Xrotation Yrotation
						JOINT LeftWrist
						{
							OFFSET 0.000000 -0.000001 -13.346901
							CHANNELS 6 Xposition Yposition Zposition Zrotation Xrotation Yrotation
							End Site
							{
								OFFSET 0.000000 -0.000000 -2.173901
							}
						}
					}
				}
			}
			JOINT RightCollar
			{
				OFFSET -2.411400 -2.842699 7.518600
				CHANNELS 6 Xposition Yposition Zposition Zrotation Xrotation Yrotation
				JOINT RightShoulder
				{
					OFFSET -4.245500 0.000000 0.000000
					CHANNELS 6 Xposition Yposition Zposition Zrotation Xrotation Yrotation
					JOINT RightElbow
					{
						OFFSET 0.000000 -0.000001 -10.446701
						CHANNELS 6 Xposition Yposition Zposition Zrotation Xrotation Yrotation
						JOINT RightWrist
						{
							OFFSET 0.000000 -0.000001 -12.218899
							CHANNELS 6 Xposition Yposition Zposition Zrotation Xrotation Yrotation
							End Site
							{
								OFFSET 0.000000 0.000000 -2.173901
							}
						}
					}
				}
			}
		}
	}
	JOINT LeftHip
	{
		OFFSET 2.346700 0.301800 -2.502800
		CHANNELS 6 Xposition Yposition Zposition Zrotation Xrotation Yrotation
		JOINT LeftKnee
		{
			OFFSET 0.000000 -0.000002 -20.597000
			CHANNELS 6 Xposition Yposition Zposition Zrotation Xrotation Yrotation
			JOINT LeftAnkle
			{
				OFFSET 0.000000 -0.000001 -17.157499
				CHANNELS 6 Xposition Yposition Zposition Zrotation Xrotation Yrotation
				End Site
				{
					OFFSET 0.000000 -9.063900 0.000001
				}
			}
		}
	}
	JOINT RightHip
	{
		OFFSET -1.908600 -0.007900 -2.706001
		CHANNELS 6 Xposition Yposition Zposition Zrotation Xrotation Yrotation
		JOINT RightKnee
		{
			OFFSET 0.000000 -0.000002 -20.198500
			CHANNELS 6 Xposition Yposition Zposition Zrotation Xrotation Yrotation
			JOINT RightAnkle
			{
				OFFSET 0.000000 -0.000001 -17.295700
				CHANNELS 6 Xposition Yposition Zposition Zrotation Xrotation Yrotation
				End Site
				{
					OFFSET 0.000000 -8.113500 0.000001
				}
			}
		}
	}
}
MOTION
Frames: 8
Frame Time: 0.041667
57.038998 30.075302 41.070694 347.087947 9.838531 -10.535890 -0.825505 0.895799 5.069489 14.808617 -15.278616 -1.388548 -0.000000 0.000000 4.622195 -7.239614 -1.287932 0.813488 0.000003 0.000003 10.755799 11.616536 -6.354741 14.196093 0.000002 0.000002 2.173913 2.242678 -3.924066 4.352379 2.539399 -1.380899 6.760996 15.745432 -7.881425 3.454758 5.406992 -0.000002 0.000001 169.126235 -138.329485 81.110518 -0.000006 -0.000000 -10.687001 73.928048 -11.142162 18.402732 -0.000003 -0.000004 -13.346910 6.352603 -10.725761 -27.415918 -2.411399 -2.842699 7.518600 5.086199 -5.936621 14.063642 -4.245505 0.000002 0.000010 -144.256314 -115.802934 -44.426836 0.000005 -0.000004 -10.446706 -106.593640 -41.358530 -143.647498 -0.000004 -0.000004 -12.218894 -22.853026 -12.879127 -17.137179 2.346698 0.301802 -2.502802 33.383694 -27.814339 23.603416 0.000003 0.000002 -20.596998 121.531018 124.323636 -129.089482 0.000001 -0.000004 -17.157501 25.645940 -9.394706 11.000478 -1.908600 -0.007897 -2.706004 -134.063950 -27.969729 -67.031572 0.000007 -0.000007 -20.198505 205.980378 84.005173 -145.265501 0.000001 -0.000003 -17.295702 -28.827049 1.632761 1.331604
57.043102 30.050003 41.065392 346.837416 9.687746 -10.449284 -0.825506 0.895801 5.069497 15.619007 -15.012547 -1.201362 -0.000002 -0.000001 4.622202 -7.955224 -1.373471 0.835831 0.000006 0.000001 10.755805 11.662267 -6.383348 13.975661 0.000005 0.000002 2.173910 2.271218 -3.939064 4.488258 2.539404 -1.380901 6.761002 16.037366 -8.437671 3.047817 5.406997 0.000003 0.000003 169.664590 -138.972548 81.883962 0.000000 0.000002 -10.686977 73.776056 -11.321506 18.344338 -0.000002 0.000006 -13.346898 7.091928 -10.670970 -27.356859 -2.411396 -2.842702 7.518599 4.899294 -6.191302 14.051419 -4.245500 -0.000002 0.000010 -145.273465 -115.837768 -45.467794 0.000005 0.000008 -10.446692 -106.299696 -41.273846 -143.455023 -0.000008 -0.000003 -12.218887 -22.787434 -12.892563 -16.564846 2.346696 0.301803 -2.502798 33.143667 -27.792887 23.357381 0.000004 0.000001 -20.597002 121.527029 124.364795 -128.882459 0.000000 -0.000006 -17.157499 25.571740 -9.209743 11.261352 -1.908603 -0.007897 -2.706002 -133.931212 -27.921012 -66.970066 0.000001 -0.000007 -20.198503 209.260276 84.040505 -148.358047 -0.000001 0.000002 -17.295702 -28.681354 1.493857 2.205153
57.046097 30.025204 41.059795 346.712232 9.531687 -10.394651 -0.825501 0.895802 5.069501 15.692997 -14.757232 -1.121284 0.000000 0.000000 4.622199 -8.004520 -1.493673 0.804576 0.000003 0.000001 10.755806 11.645349 -6.490868 13.737155 0.000009 0.000002 2.173911 2.226235 -3.957009 4.660093 2.539401 -1.380902 6.760995 16.427010 -8.889402 2.667337 5.407005 0.000004 0.000002 169.892090 -139.378630 82.567056 -0.000003 -0.000001 -10.687007 74.103318 -11.268563 18.346969 0.000006 -0.000002 -13.346886 7.097901 -10.519476 -27.053739 -2.411397 -2.842702 7.518604 4.637115 -6.380572 13.788825 -4.245497 0.000001 0.000005 -146.027518 -116.060856 -46.209737 0.000003 -0.000000 -10.446698 -107.098848 -41.662433 -143.810097 0.000007 0.000001 -12.218899 -23.365963 -13.026865 -16.863836 2.346698 0.301804 -2.502794 32.871976 -27.768178 23.203959 0.000008 -0.000002 -20.596994 121.245939 124.497191 -128.557766 0.000002 -0.000001 -17.157501 25.630818 -9.106963 11.453565 -1.908604 -0.007899 -2.705996 -133.806780 -28.015716 -66.891232 0.000004 -0.000009 -20.198503 213.029516 84.119886 -152.087167 -0.000000 -0.000002 -17.295700 -28.516943 1.360047 3.025378
57.050205 30.008507 41.054699 346.615271 9.743730 -10.048392 -0.825492 0.895799 5.069497 15.753968 -15.041646 -1.411457 -0.000006 0.000002 4.622197 -8.204307 -1.569786 0.806744 0.000002 0.000010 10.755811 11.819815 -6.594996 13.651689 0.000003 0.000000 2.173913 2.146699 -3.965233 4.788475 2.539399 -1.380897 6.760997 16.814777 -9.183819 2.456917 5.406995 -0.000002 0.000003 170.213191 -139.666741 83.056815 -0.000004 0.000001 -10.686991 74.335114 -11.165246 18.445057 -0.000015 -0.000004 -13.346890 6.919274 -10.490284 -27.014570 -2.411401 -2.842696 7.518599 4.600240 -6.491246 13.912873 -4.245501 -0.000001 0.000005 -146.082078 -115.736954 -46.274463 0.000005 -0.000003 -10.446697 -107.927828 -42.258872 -144.559028 -0.000004 0.000004 -12.218891 -24.518656 -13.151858 -17.077671 2.346706 0.301801 -2.502795 32.600770 -28.187579 23.032301 0.000000 0.000001 -20.597002 120.935384 124.717820 -128.336960 -0.000003 0.000002 -17.157499 25.775256 -8.970195 11.783099 -1.908598 -0.007900 -2.706002 -133.580878 -27.697095 -66.933395 0.000006 -0.000004 -20.198513 208.995428 83.498776 -147.994285 -0.000001 -0.000004 -17.295700 -29.224952 1.336293 2.587250
57.057201 29.990608 41.049297 346.641335 9.950232 -9.833392 -0.825510 0.895797 5.069490 15.719812 -15.383635 -1.711492 0.000000 0.000001 4.622199 -8.129040 -1.610107 0.809240 0.000008 -0.000002 10.755808 11.845091 -6.536972 13.859566 0.000002 0.000006 2.173900 1.922715 -4.089926 4.823859 2.539404 -1.380905 6.760997 16.575259 -8.626527 3.113061 5.407004 -0.000002 0.000007 170.044458 -139.489689 82.401369 -0.000001 0.000006 -10.687001 74.455298 -11.277809 18.411381 -0.000008 0.000006 -13.346887 7.046457 -10.419689 -27.002542 -2.411395 -2.842704 7.518600 4.512368 -6.369994 13.718689 -4.245494 -0.000002 -0.000003 -144.090367 -115.231780 -43.895382 -0.000001 -0.000003 -10.446690 -107.420543 -42.657110 -144.796691 -0.000008 0.000006 -12.218884 -25.045510 -13.513500 -17.123723 2.346690 0.301799 -2.502805 32.668631 -28.503995 23.158345 -0.000000 0.000002 -20.596996 119.954992 125.009701 -127.831184 -0.000005 -0.000003 -17.157507 26.173396 -8.815968 12.126569 -1.908611 -0.007900 -2.706009 -133.604688 -27.363659 -67.050096 0.000003 -0.000008 -20.198507 202.527868 82.589411 -141.382266 -0.000001 -0.000008 -17.295698 -30.049725 1.145127 1.969319
57.063797 29.970905 41.041496 346.792036 10.025601 -9.701690 -0.825504 0.895800 5.069503 14.936483 -15.560882 -2.080830 0.000003 -0.000002 4.622200 -7.473772 -1.660988 0.760283 0.000004 0.000003 10.755798 11.849776 -6.583573 13.992768 0.000002 0.000004 2.173914 1.719472 -4.132539 4.791390 2.539404 -1.380902 6.760996 16.525221 -8.375510 3.288005 5.406991 -0.000000 -0.000001 170.282900 -139.429487 82.372293 -0.000003 -0.000000 -10.687002 74.667935 -11.136371 18.537482 -0.000005 -0.000007 -13.346908 7.023970 -10.440625 -26.858141 -2.411398 -2.842698 7.518598 4.503846 -6.265279 13.749239 -4.245497 -0.000001 0.000005 -142.431465 -114.546418 -41.736913 0.000003 0.000000 -10.446700 -107.184724 -42.864956 -145.397515 -0.000005 0.000003 -12.218896 -25.894844 -13.779092 -17.095147 2.346692 0.301802 -2.502801 32.680976 -28.689711 23.282139 -0.000001 0.000002 -20.597004 119.094716 125.139844 -127.381088 0.000001 0.000001 -17.157501 26.418497 -8.848735 12.276728 -1.908606 -0.007899 -2.705997 -133.603213 -27.316836 -67.067410 0.000006 -0.000007 -20.198505 199.546367 82.022014 -138.437826 0.000001 -0.000001 -17.295694 -30.554257 1.146434 1.688692
57.060997 29.947905 41.029198 346.877004 10.023547 -9.469063 -0.825489 0.895801 5.069493 14.775752 -15.668811 -2.411662 0.000007 0.000001 4.622201 -7.352297 -1.652931 0.765442 0.000003 0.000005 10.755804 11.772507 -6.663322 14.071692 0.000002 0.000001 2.173914 1.623756 -4.124375 4.802280 2.539401 -1.380897 6.760995 16.525796 -8.100056 3.393040 5.407009 0.000000 0.000001 170.360190 -139.195253 82.414415 -0.000003 -0.000005 -10.686996 75.060917 -10.954083 18.685058 -0.000001 -0.000000 -13.346912 6.635131 -10.379124 -26.793987 -2.411403 -2.842696 7.518600 4.578122 -6.236241 13.871340 -4.245499 -0.000001 0.000002 -143.558132 -114.129367 -42.300789 0.000003 0.000007 -10.446701 -108.404746 -43.415664 -146.066396 -0.000005 -0.000001 -12.218899 -27.010658 -13.956134 -17.728806 2.346706 0.301802 -2.502797 32.705961 -28.833497 23.194014 0.000006 0.000000 -20.597000 118.178802 125.370485 -126.852295 -0.000001 -0.000008 -17.157501 26.717936 -8.903950 12.522752 -1.908591 -0.007895 -2.706000 -133.650519 -27.004475 -66.997367 0.000001 -0.000007 -20.198511 198.654140 81.723712 -137.315926 0.000003 0.000005 -17.295698 -30.777078 1.292923 1.606692
57.062405 29.923103 41.013893 346.978773 10.087839 -9.410389 -0.825506 0.895801 5.069493 14.667961 -15.789931 -2.498048 -0.000004 0.000002 4.622197 -7.334891 -1.660629 0.760989 0.000000 0.000004 10.755806 11.800535 -6.743257 14.120494 0.000001 0.000002 2.173912 1.731296 -4.034042 4.777217 2.539397 -1.380898 6.760999 16.672543 -8.226933 3.362575 5.406996 0.000003 0.000008 170.688531 -139.540205 82.713816 -0.000002 0.000005 -10.686989 74.743252 -11.115305 18.788351 -0.000005 0.000006 -13.346889 7.207859 -10.406835 -26.856770 -2.411399 -2.842697 7.518602 4.783176 -6.019176 14.069274 -4.245493 0.000000 -0.000001 -144.043376 -113.517402 -42.154510 0.000002 0.000002 -10.446706 -109.392358 -43.867891 -146.828986 -0.000010 -0.000006 -12.218898 -27.929257 -14.008408 -18.096407 2.346691 0.301802 -2.502801 32.762864 -28.921623 23.263761 0.000005 0.000002 -20.597004 117.267832 125.706476 -126.311494 -0.000004 0.000001 -17.157501 27.100244 -8.951982 12.525717 -1.908607 -0.007896 -2.706005 -133.721184 -26.834336 -67.071529 0.000004 -0.000006 -20.198505 203.639659 82.391985 -142.176699 -0.000002 0.000003 -17.295704 -29.994830 1.677825 2.145620
